<svg width="38" height="38" viewBox="0 0 38 38" fill="none" xmlns="http://www.w3.org/2000/svg">
<path d="M36.2559 19C36.2559 19.6754 35.7489 20.2246 35.1255 20.2246H20.2246V35.1255C20.2246 35.7489 19.6754 36.2559 19 36.2559C18.3246 36.2559 17.7754 35.7489 17.7754 35.1255V20.2246H2.87449C2.25105 20.2246 1.74414 19.6754 1.74414 19C1.74414 18.3246 2.25105 17.7754 2.87449 17.7754H17.7754V2.87449C17.7754 2.25105 18.3246 1.74414 19 1.74414C19.6754 1.74414 20.2246 2.25105 20.2246 2.87449V17.7754H35.1255C35.7489 17.7754 36.2559 18.3246 36.2559 19Z" fill="white"/>
</svg>
