<svg width="17" height="17" viewBox="0 0 17 17" fill="none" xmlns="http://www.w3.org/2000/svg">
<path fill-rule="evenodd" clip-rule="evenodd" d="M11.3896 1.40588C11.7008 1.09468 12.2054 1.09469 12.5166 1.40588L15.5941 4.48335C15.9053 4.79456 15.9053 5.29912 15.5941 5.6103L5.9587 15.2457C5.94356 15.2613 5.92745 15.2759 5.91052 15.2894C5.84375 15.3431 5.76698 15.3783 5.68713 15.395C5.67435 15.3977 5.66143 15.3999 5.64835 15.4016L1.66397 15.9329C1.49995 15.9547 1.33511 15.8989 1.2181 15.7819C1.1011 15.6649 1.0453 15.5001 1.06716 15.3361L1.59761 11.3577C1.61139 11.2438 1.66197 11.1336 1.74935 11.0462L11.3896 1.40588ZM13.0612 6.64059L5.57809 14.1237L2.87628 11.4219L10.3594 3.93879L13.0612 6.64059ZM13.8125 5.88931L14.655 5.04684L11.9531 2.34501L11.1107 3.18747L13.8125 5.88931ZM2.50951 12.5577L2.21216 14.7879L4.44231 14.4905L2.50951 12.5577Z" fill="white"/>
</svg>
