<svg width="17" height="17" viewBox="0 0 17 17" fill="none" xmlns="http://www.w3.org/2000/svg">
<g clip-path="url(#clip0_5_14)">
<path d="M6.79999 12.7434C8.24961 12.7434 9.56743 12.2295 10.5953 11.3597L15.2077 15.9721C15.3132 16.0775 15.445 16.1302 15.5899 16.1302C15.7349 16.1302 15.8667 16.0775 15.9721 15.9721C16.1829 15.7612 16.1829 15.4186 15.9721 15.2078L11.3597 10.5954C12.2163 9.56745 12.7434 8.23644 12.7434 6.80001C12.7434 3.51861 10.0814 0.856598 6.79999 0.856598C3.53178 0.856598 0.856583 3.53179 0.856583 6.80001C0.856583 10.0814 3.53178 12.7434 6.79999 12.7434ZM6.79999 1.93722C9.48836 1.93722 11.6628 4.12481 11.6628 6.80001C11.6628 9.48838 9.48836 11.6628 6.79999 11.6628C4.11162 11.6628 1.9372 9.4752 1.9372 6.80001C1.9372 4.12481 4.1248 1.93722 6.79999 1.93722Z" fill="#F1F5F9"/>
</g>
<defs>
<clipPath id="clip0_5_14">
<rect width="17" height="17" fill="white"/>
</clipPath>
</defs>
</svg>
