<svg width="19" height="17" viewBox="0 0 19 17" fill="none" xmlns="http://www.w3.org/2000/svg">
<path d="M17.7718 1.54441H13.9091V0.773655C13.9095 0.67195 13.8897 0.571176 13.851 0.477139C13.8122 0.383103 13.7553 0.297664 13.6833 0.225748C13.6114 0.153832 13.526 0.0968596 13.4319 0.0581158C13.3379 0.0193719 13.2371 -0.000377604 13.1354 5.46763e-06H5.41006C5.30835 -0.000377604 5.20757 0.0193719 5.11352 0.0581158C5.01948 0.0968596 4.93404 0.153832 4.86212 0.225748C4.7902 0.297664 4.73322 0.383103 4.69448 0.477139C4.65573 0.571176 4.63598 0.67195 4.63636 0.773655V1.54441H0.773693C0.568497 1.54441 0.371705 1.62592 0.226609 1.771C0.0815139 1.91609 0 2.11287 0 2.31806C0 2.52324 0.0815139 2.72002 0.226609 2.86511C0.371705 3.0102 0.568497 3.0917 0.773693 3.0917H2.31818V14.682C2.31818 15.2967 2.56242 15.8863 2.99716 16.3211C3.4319 16.7558 4.02154 17 4.63636 17H13.9091C14.5239 17 15.1135 16.7558 15.5483 16.3211C15.983 15.8863 16.2273 15.2967 16.2273 14.682V3.0917H17.7718C17.977 3.0917 18.1737 3.0102 18.3188 2.86511C18.4639 2.72002 18.5455 2.52324 18.5455 2.31806C18.5455 2.11287 18.4639 1.91609 18.3188 1.771C18.1737 1.62592 17.977 1.54441 17.7718 1.54441ZM14.6828 14.682C14.682 14.8866 14.6002 15.0827 14.4552 15.2271C14.3101 15.3716 14.1138 15.4527 13.9091 15.4527H4.63636C4.43167 15.4527 4.23531 15.3716 4.0903 15.2271C3.94529 15.0827 3.86344 14.8866 3.86267 14.682V3.0917H14.6828V14.682Z" fill="#F1F5F9"/>
<path d="M6.95455 13.1347C7.15924 13.1347 7.3556 13.0536 7.50061 12.9091C7.64562 12.7646 7.72747 12.5686 7.72824 12.3639V6.18051C7.72824 5.97533 7.64673 5.77854 7.50163 5.63346C7.35654 5.48837 7.15974 5.40686 6.95455 5.40686C6.74935 5.40686 6.55256 5.48837 6.40746 5.63346C6.26237 5.77854 6.18085 5.97533 6.18085 6.18051V12.3639C6.18162 12.5686 6.26347 12.7646 6.40849 12.9091C6.5535 13.0536 6.74985 13.1347 6.95455 13.1347Z" fill="#F1F5F9"/>
<path d="M11.5909 13.1347C11.7956 13.1347 11.992 13.0536 12.137 12.9091C12.282 12.7646 12.3638 12.5686 12.3646 12.3639V6.18051C12.3646 5.97533 12.2831 5.77854 12.138 5.63346C11.9929 5.48837 11.7961 5.40686 11.5909 5.40686C11.3857 5.40686 11.1889 5.48837 11.0438 5.63346C10.8987 5.77854 10.8172 5.97533 10.8172 6.18051V12.3639C10.818 12.5686 10.8998 12.7646 11.0448 12.9091C11.1899 13.0536 11.3862 13.1347 11.5909 13.1347Z" fill="#F1F5F9"/>
</svg>
